<?xml version="1.0" standalone="no"?>
<!DOCTYPE svg PUBLIC "-//W3C//DTD SVG 20010904//EN"
 "http://www.w3.org/TR/2001/REC-SVG-20010904/DTD/svg10.dtd">
<svg version="1.0" xmlns="http://www.w3.org/2000/svg"
 width="500.000000pt" height="500.000000pt" viewBox="0 0 500.000000 500.000000"
 preserveAspectRatio="xMidYMid meet">

<g transform="translate(0.000000,500.000000) scale(0.100000,-0.100000)"
fill="#000000" stroke="none">
<path d="M2780 4188 c-73 -20 -105 -74 -96 -160 l6 -58 -148 0 c-176 0 -296
-18 -440 -66 -464 -153 -797 -525 -907 -1011 l-17 -73 -63 -36 c-126 -70 -216
-173 -249 -284 -36 -120 7 -201 160 -298 93 -60 99 -65 98 -96 -1 -40 -42
-130 -77 -172 -14 -17 -53 -45 -86 -63 -73 -38 -88 -60 -71 -102 24 -58 101
-112 237 -169 116 -49 135 -54 203 -54 41 0 85 4 97 8 19 7 26 1 52 -39 39
-62 46 -115 30 -230 -15 -112 -5 -160 42 -199 57 -48 151 -29 183 38 20 42 21
133 2 206 -8 30 -13 56 -11 58 2 2 24 -4 49 -12 58 -20 73 -20 110 -1 15 8 31
15 33 15 9 0 -8 -113 -34 -220 -49 -203 -12 -336 99 -364 55 -13 129 38 155
107 18 50 15 152 -8 275 -12 62 -19 115 -17 118 3 2 39 -5 80 -15 280 -72 610
-47 861 65 122 54 123 54 131 4 5 -30 17 -53 42 -78 32 -32 38 -34 81 -29 92
10 133 93 116 232 -5 44 -8 85 -5 90 2 6 19 23 38 38 l34 29 9 -25 c15 -38 59
-67 101 -67 77 0 124 75 101 164 -19 75 -15 113 14 132 25 16 27 16 50 -6 34
-32 38 -64 19 -159 -20 -100 -14 -163 19 -212 46 -68 135 -58 174 20 25 50 22
154 -6 274 -39 160 -30 199 76 356 76 113 111 266 93 418 -10 95 -35 156 -85
208 -23 25 -41 35 -63 35 -23 0 -31 5 -36 25 -3 13 -26 47 -50 74 -24 27 -52
70 -61 96 -17 42 -17 49 -3 73 25 44 30 81 18 141 -21 100 -133 315 -254 486
-61 88 -175 225 -186 225 -4 0 -41 30 -81 66 -162 146 -226 182 -376 213 -112
23 -131 24 -183 9z m119 -34 l31 -7 -25 -23 c-15 -14 -25 -34 -25 -50 0 -30 7
-27 24 8 7 13 30 29 54 38 39 13 47 13 95 -4 64 -23 136 -69 201 -127 l49 -45
-39 -17 c-35 -16 -82 -63 -72 -72 2 -2 23 9 47 26 49 33 67 35 115 15 44 -18
94 -70 183 -190 l73 -99 -37 -13 c-38 -13 -83 -55 -83 -76 0 -6 11 -1 24 11
36 34 107 40 132 12 19 -19 114 -183 114 -195 0 -3 -12 -1 -26 4 -48 19 -126
12 -172 -15 l-44 -25 -35 79 c-22 50 -43 81 -54 84 -11 3 -19 13 -19 24 -1 24
-14 39 -87 98 -35 28 -63 52 -63 55 0 11 58 40 79 40 12 0 21 5 21 10 0 15
-55 12 -95 -4 -39 -17 -85 -3 -85 25 0 22 -115 154 -156 180 -34 20 -34 22
-19 45 18 27 5 31 -28 9 -19 -12 -27 -12 -52 -1 -16 8 -59 24 -95 36 -111 38
-126 55 -98 116 21 44 87 64 167 48z m69 -333 c29 -17 63 -55 104 -114 33 -49
110 -140 170 -203 94 -98 115 -127 150 -201 22 -48 48 -98 59 -111 24 -31 25
-69 2 -76 -35 -9 -150 -19 -221 -18 -68 1 -78 -2 -158 -43 -62 -33 -92 -43
-112 -39 -29 6 -61 -4 -246 -75 -103 -40 -115 -43 -221 -44 l-111 -2 -26 36
-26 37 25 22 c33 29 51 74 58 151 9 102 11 105 50 70 61 -54 139 -49 190 10
37 45 34 92 -9 135 -30 30 -40 34 -88 34 -32 0 -62 -6 -76 -16 -25 -17 -52
-64 -52 -91 0 -11 -12 -23 -30 -30 -27 -10 -30 -9 -30 10 0 11 12 33 26 48 22
23 24 30 15 48 -7 12 -20 21 -29 21 -23 0 -77 -57 -85 -89 -8 -31 8 -71 28
-71 13 0 10 -7 -10 -34 -14 -19 -29 -50 -32 -70 -3 -20 -8 -36 -10 -36 -2 0
-16 14 -31 31 -28 34 -93 68 -129 69 -13 0 -23 5 -23 11 0 7 46 56 103 109 81
78 117 121 177 216 87 138 155 226 269 346 l83 87 101 -50 c56 -28 121 -63
145 -78z m-378 53 c0 -3 -16 -25 -36 -48 -36 -43 -37 -44 -118 -50 -295 -25
-558 -152 -759 -366 -120 -128 -202 -263 -257 -428 -26 -79 -32 -88 -62 -99
-60 -22 -71 -18 -64 22 22 115 101 294 189 425 63 94 239 270 334 333 146 97
328 170 501 201 76 14 272 21 272 10z m-245 -202 c-35 -31 -395 -241 -560
-327 -146 -75 -110 -47 110 85 256 153 495 282 450 242z m-145 -16 c0 -14
-400 -246 -425 -246 -25 0 286 189 378 230 49 22 47 21 47 16z m191 -20 c-7
-8 -90 -61 -184 -117 -95 -56 -194 -114 -220 -130 -27 -16 -50 -29 -52 -29 -2
0 -28 -14 -57 -31 -84 -50 -258 -141 -258 -135 0 13 746 449 779 455 2 1 -2
-5 -8 -13z m939 -66 c0 -5 -4 -10 -10 -10 -5 0 -10 5 -10 10 0 6 5 10 10 10 6
0 10 -4 10 -10z m-1009 -43 c-13 -17 -145 -95 -411 -244 -255 -143 -357 -198
-345 -185 27 28 756 455 764 447 2 -3 -1 -11 -8 -18z m-58 -92 c-25 -34 -122
-90 -134 -78 -7 7 17 26 68 56 43 25 79 45 81 46 2 1 -5 -10 -15 -24z m1197
-50 c0 -8 -7 -15 -15 -15 -8 0 -15 7 -15 15 0 8 7 15 15 15 8 0 15 -7 15 -15z
m-1336 -34 c6 -10 -54 -46 -329 -198 -206 -114 -245 -135 -245 -130 0 8 549
337 562 337 4 0 9 -4 12 -9z m266 -6 c0 -2 -11 -15 -25 -29 -14 -14 -25 -34
-25 -46 0 -11 -4 -20 -10 -20 -20 0 -10 51 15 75 21 22 45 33 45 20z m1316
-39 c11 -4 28 -23 38 -44 10 -21 12 -32 5 -24 -25 23 -28 12 -8 -33 23 -52 18
-83 -20 -124 -38 -40 -122 -62 -282 -72 -82 -5 -168 -17 -215 -30 -44 -11
-104 -28 -134 -36 -45 -12 -66 -13 -115 -3 -71 13 -104 4 -151 -41 -29 -28
-35 -30 -73 -22 l-42 8 105 43 c77 30 120 42 157 42 42 0 63 7 112 37 60 36
65 37 187 44 173 10 231 22 252 53 5 6 5 36 2 67 -6 52 -4 59 22 88 29 32 97
63 124 56 8 -2 24 -6 36 -9z m-1617 -41 c-26 -24 -60 -47 -75 -51 -16 -4 -33
-13 -39 -20 -9 -11 -230 -137 -415 -235 -118 -63 41 38 293 187 28 17 102 60
162 96 61 37 112 66 115 67 3 0 -16 -19 -41 -44z m295 -123 c-4 -41 -15 -84
-26 -103 -26 -42 -30 -33 -13 26 22 71 18 100 -6 45 -37 -85 -40 -89 -33 -35
3 28 11 59 16 70 13 25 60 76 65 71 3 -2 1 -36 -3 -74z m-236 -4 c50 -19 82
-49 112 -106 10 -21 3 -18 -49 17 -81 55 -106 62 -52 13 l43 -39 -26 -7 c-43
-11 -118 54 -145 126 -10 26 -10 27 27 21 20 -3 61 -15 90 -25z m-183 -7 c-30
-32 -349 -215 -365 -209 -5 2 32 28 83 58 180 108 302 179 306 180 3 0 -8 -13
-24 -29z m98 -86 c56 -58 64 -78 18 -45 -25 18 -51 24 -97 21 -12 -1 -36 -14
-53 -30 -25 -23 -31 -37 -31 -69 0 -58 37 -92 100 -92 35 0 50 -4 54 -16 8
-20 10 -17 -31 -38 -45 -22 -115 -21 -137 3 -11 12 -14 21 -7 26 18 10 12 44
-9 55 -14 7 -25 7 -38 -1 -11 -7 -27 -9 -36 -6 -14 6 5 31 95 127 62 66 114
120 116 120 1 0 27 -25 56 -55z m-228 -55 c-31 -32 -140 -93 -157 -88 -8 3
164 114 181 117 3 1 -8 -12 -24 -29z m1937 -7 c12 -11 18 -30 18 -60 0 -38 2
-43 23 -43 13 0 34 -11 46 -24 26 -27 26 -27 -5 -158 -16 -72 -16 -78 -1 -102
15 -23 20 -24 43 -14 27 13 57 63 69 115 19 91 78 24 95 -109 19 -152 -22
-272 -129 -379 -108 -108 -240 -175 -478 -243 -220 -63 -515 -103 -1007 -136
-433 -29 -577 -54 -674 -117 -48 -32 -82 -91 -82 -145 0 -52 -20 -65 -77 -50
-103 28 -183 122 -183 217 0 109 79 219 197 273 135 61 297 77 873 87 634 10
917 38 1138 112 188 62 301 155 352 288 9 23 7 22 -36 -10 -83 -64 -162 -69
-209 -13 -23 28 -30 56 -26 118 1 17 -11 1 -39 -50 -71 -128 -138 -180 -218
-167 -19 4 -45 16 -58 28 l-23 22 -45 -40 c-78 -68 -151 -79 -239 -35 l-56 28
-21 -28 c-44 -60 -121 -86 -154 -52 -24 24 -21 105 5 138 26 33 69 56 107 56
24 0 37 11 79 68 27 37 63 89 78 116 25 44 27 49 10 42 -75 -30 -111 -38 -164
-34 l-58 4 -33 -119 c-66 -242 -150 -341 -290 -341 -43 -1 -66 6 -102 27 -47
27 -47 27 -58 7 -17 -32 -90 -80 -121 -80 -58 0 -79 87 -36 151 27 40 60 59
104 59 27 0 38 9 81 68 65 88 110 167 91 159 -64 -26 -128 -39 -174 -34 l-51
5 -32 -110 c-77 -265 -163 -372 -273 -339 -58 18 -92 68 -97 145 -3 51 5 92
48 241 29 99 56 184 60 189 13 13 97 -21 115 -47 24 -34 18 -99 -20 -211 -52
-157 -44 -220 20 -145 37 44 63 99 100 209 32 94 32 95 13 125 -10 17 -18 44
-18 61 0 84 113 128 138 54 9 -23 18 -30 49 -35 21 -3 47 -8 57 -10 28 -6 120
14 125 26 2 6 17 26 33 45 35 40 83 52 125 32 24 -12 28 -19 25 -48 -6 -80
-75 -189 -209 -330 l-65 -70 60 0 c33 0 73 5 89 11 68 25 128 114 174 257 22
69 22 74 6 101 -37 63 -9 142 54 156 32 7 69 -15 69 -41 0 -18 26 -30 83 -37
50 -7 147 9 147 23 0 5 14 25 31 44 38 44 83 55 128 31 29 -14 32 -20 26 -48
-17 -87 -87 -195 -212 -327 l-65 -70 63 1 c81 1 102 8 138 42 21 19 33 44 41
85 31 150 158 319 283 377 61 29 103 32 129 8z m-1505 -33 c33 -20 58 -54 49
-69 -3 -5 -18 -11 -34 -14 -30 -6 -76 -45 -103 -87 l-16 -24 -32 31 c-89 89
28 229 136 163z m-567 -107 c212 -72 285 -318 159 -540 -40 -70 -144 -164
-226 -205 -61 -30 -77 -33 -162 -35 l-95 -2 -21 -78 c-41 -152 -86 -220 -170
-259 -54 -26 -99 -30 -157 -14 -41 12 -98 60 -98 83 0 9 27 30 62 49 116 62
152 134 228 458 44 188 79 268 142 325 46 41 97 65 140 65 25 0 98 -31 98 -41
0 -5 -17 -20 -38 -33 -65 -41 -112 -166 -156 -415 l-6 -34 41 7 c231 37 385
379 241 538 -97 107 -316 76 -455 -64 -79 -79 -102 -134 -100 -233 1 -44 3
-91 5 -105 3 -24 0 -25 -49 -28 -153 -9 -227 114 -156 259 33 66 128 162 206
208 71 42 230 97 317 110 79 12 188 5 250 -16z m940 2 c-25 -19 -46 -25 -84
-25 -28 0 -67 -4 -87 -9 -33 -8 -38 -6 -48 15 l-11 24 98 1 c53 1 108 5 122 9
43 14 45 11 10 -15z m-665 -145 c-3 -5 -12 -7 -20 -3 -21 7 -19 13 6 13 11 0
18 -4 14 -10z m2034 -489 c-116 -165 -139 -219 -139 -331 0 -37 8 -100 19
-141 10 -41 21 -92 25 -114 8 -52 -11 -90 -44 -90 -35 0 -49 34 -38 92 15 78
21 161 14 187 -9 37 -53 83 -91 96 -44 14 -98 -9 -127 -54 -17 -26 -19 -43
-14 -112 4 -72 3 -84 -14 -99 -22 -20 -50 -14 -51 12 -1 10 0 50 1 89 2 72
-14 130 -46 165 -14 16 -9 19 68 44 165 54 307 136 398 229 47 49 61 58 39 27z
m-703 -381 c-8 -39 -6 -77 7 -168 9 -64 17 -152 17 -194 0 -65 -3 -81 -21 -99
-11 -11 -30 -19 -42 -17 -24 3 -23 -18 -15 268 3 121 2 126 -24 171 -15 26
-35 50 -45 54 -14 6 -6 11 32 21 28 6 62 13 76 13 25 1 26 1 15 -49z m-1263
-150 l-38 -73 1 -136 c0 -106 6 -168 28 -280 30 -158 29 -211 -5 -255 -23 -30
-54 -33 -87 -10 -19 13 -22 24 -22 89 0 45 10 115 26 182 23 93 26 124 22 223
-4 103 -7 122 -35 182 -17 36 -40 75 -51 86 l-21 21 34 11 c34 11 177 38 183
35 2 -2 -14 -35 -35 -75z m1395 51 c-27 -35 -44 -39 -51 -12 -6 26 11 41 46
41 l29 0 -24 -29z m-403 -77 c-79 -48 -176 -96 -181 -91 -6 5 146 104 176 115
56 21 59 8 5 -24z m-95 12 c0 -6 -228 -126 -237 -126 -19 0 195 130 215 130
12 0 22 -2 22 -4z m-132 -11 c-8 -9 -229 -125 -237 -125 -7 0 99 69 164 107
35 20 88 33 73 18z m-248 -9 c0 -7 -153 -86 -158 -82 -4 5 105 69 133 78 11 3
21 6 23 7 1 1 2 -1 2 -3z m119 0 c-9 -8 -204 -109 -197 -102 18 21 165 106
182 106 11 0 17 -2 15 -4z m512 -104 c-23 -43 -273 -148 -416 -176 -189 -35
-369 -30 -555 15 -127 32 -140 40 -140 94 0 26 5 45 11 45 6 0 48 -11 93 -24
124 -38 199 -48 346 -48 220 0 398 46 580 151 l85 49 3 -44 c2 -24 -1 -52 -7
-62z m-762 95 c-14 -11 -139 -77 -139 -73 0 4 82 55 110 68 16 7 36 10 29 5z
m-139 -12 c0 -2 -13 -11 -30 -20 -38 -19 -40 -11 -2 9 31 17 32 18 32 11z
m-685 -155 c2 -3 12 -55 21 -113 23 -139 15 -180 -35 -185 l-34 -3 9 83 c10
106 11 176 2 210 -7 23 -5 25 12 21 11 -3 22 -9 25 -13z"/>
<path d="M2786 3834 c-21 -20 -20 -29 5 -53 12 -11 24 -34 28 -53 7 -36 32
-48 56 -28 31 26 8 113 -36 135 -35 18 -34 18 -53 -1z m58 -36 c18 -25 22 -88
6 -88 -5 0 -10 14 -10 30 0 17 -9 39 -20 50 -24 24 -25 30 -6 30 8 0 22 -10
30 -22z"/>
<path d="M2613 3750 c-35 -21 -63 -66 -63 -101 0 -34 37 -85 74 -103 94 -45
196 8 196 102 0 95 -121 155 -207 102z"/>
<path d="M2924 3636 c-3 -8 -13 -12 -25 -9 -27 7 -49 -14 -49 -47 0 -67 111
-107 158 -57 26 28 27 40 7 57 -9 7 -14 19 -11 26 6 17 -26 44 -53 44 -12 0
-24 -6 -27 -14z m52 -17 c4 -7 -1 -16 -10 -21 -9 -5 -16 -18 -16 -30 0 -18 4
-20 32 -14 31 6 31 6 13 -14 -10 -11 -30 -20 -45 -20 -37 0 -82 37 -78 63 4
28 24 32 31 6 8 -28 31 -19 35 14 3 27 25 36 38 16z"/>
<path d="M2474 3560 c-54 -22 -83 -109 -48 -144 21 -21 61 -20 73 2 6 9 11 11
11 5 0 -19 35 -16 53 5 18 20 22 48 8 56 -4 3 -6 18 -3 32 8 44 -39 66 -94 44z
m74 -28 c2 -7 -2 -10 -11 -7 -7 3 -20 -2 -28 -11 -11 -14 -11 -18 6 -30 10 -8
25 -14 32 -14 17 0 17 -15 -1 -30 -12 -9 -17 -7 -28 9 -14 22 -43 28 -53 11
-4 -6 -1 -17 5 -25 10 -12 9 -15 -8 -15 -42 0 -43 61 -2 101 31 31 79 38 88
11z"/>
<path d="M2715 3505 c-58 -47 -65 -55 -65 -74 0 -10 9 -29 19 -42 16 -20 23
-22 47 -14 15 6 31 19 34 30 3 11 13 32 24 47 22 33 15 78 -12 78 -9 0 -30
-12 -47 -25z"/>
<path d="M3110 3445 c-15 -18 -5 -53 28 -87 32 -35 91 -39 122 -8 17 17 18 24
9 41 -9 17 -17 20 -45 16 -30 -5 -36 -2 -49 24 -17 31 -45 38 -65 14z m44 -28
c7 -30 46 -49 70 -35 23 13 32 3 16 -17 -29 -35 -110 5 -110 55 0 27 16 25 24
-3z"/>
<path d="M2893 3400 c-142 -64 -90 -258 73 -276 71 -8 131 25 162 88 20 40 22
52 13 85 -12 43 -61 96 -104 112 -42 16 -97 13 -144 -9z"/>
<path d="M2170 3242 c-23 -20 -29 -32 -24 -46 6 -15 14 -17 47 -12 60 10 77
23 77 56 0 28 -3 30 -35 30 -24 0 -44 -9 -65 -28z"/>
<path d="M3197 3230 c-6 -23 23 -60 47 -60 8 0 16 -7 20 -15 6 -16 33 -20 60
-9 19 7 21 54 4 76 -8 9 -36 19 -69 23 -52 6 -57 4 -62 -15z"/>
<path d="M2710 3204 c-44 -31 -54 -48 -34 -65 12 -10 23 -9 62 7 52 22 62 47
27 69 -17 12 -25 10 -55 -11z"/>
<path d="M2508 3134 c-33 -17 -61 -68 -53 -94 10 -30 37 -34 59 -8 16 20 18
20 11 3 -17 -42 -11 -69 17 -79 40 -14 82 7 76 38 -4 21 -3 23 13 13 39 -24
75 45 49 94 -25 45 -117 63 -172 33z m122 -19 c43 -22 54 -85 14 -85 -8 0 -14
6 -14 14 0 22 -19 30 -36 15 -10 -8 -13 -22 -8 -45 6 -33 5 -34 -25 -34 -36 0
-36 1 -16 41 9 16 13 34 10 39 -11 18 -42 11 -58 -12 -16 -23 -16 -23 -16 10
-1 58 84 91 149 57z"/>
<path d="M2737 3092 c-9 -20 -8 -26 8 -39 63 -45 183 -10 149 44 -8 13 -27 17
-78 18 -63 2 -69 0 -79 -23z m133 -13 c0 -10 -28 -19 -55 -19 -13 0 -30 3 -39
6 -31 12 -15 20 39 20 30 -1 55 -4 55 -7z"/>
<path d="M2412 2988 c-5 -7 -12 -22 -16 -34 -10 -32 13 -45 65 -36 35 6 45 12
47 30 3 18 -4 26 -32 37 -43 18 -51 18 -64 3z"/>
<path d="M3678 2908 c-92 -79 -187 -388 -119 -388 20 0 71 68 110 144 87 178
93 315 9 244z"/>
<path d="M2795 2048 c-2 -7 -8 -26 -13 -43 l-9 -30 -10 35 c-9 35 -10 35 -71
38 -38 2 -62 -1 -62 -8 0 -5 7 -10 15 -10 12 0 15 -15 15 -75 0 -60 3 -75 15
-75 12 0 15 15 15 74 0 63 3 74 19 79 15 3 21 -5 35 -48 9 -28 16 -61 16 -73
0 -13 6 -22 15 -22 10 0 15 10 15 29 0 16 7 48 15 71 8 23 15 49 15 56 0 17
-19 18 -25 2z"/>
<path d="M2544 2037 c-3 -8 -4 -30 -2 -49 2 -25 8 -34 26 -36 16 -3 22 -10 22
-28 0 -27 -15 -32 -24 -9 -9 24 -26 17 -26 -11 0 -23 3 -25 38 -22 36 3 37 4
40 46 3 40 2 43 -27 48 -34 7 -36 11 -20 34 8 11 12 12 16 3 9 -23 35 -15 31
10 -2 17 -11 23 -36 25 -21 2 -34 -2 -38 -11z"/>
<path d="M2193 2033 c-27 -5 -37 -32 -24 -65 6 -17 6 -29 0 -35 -6 -6 -9 -25
-7 -44 l3 -33 63 -1 c58 -1 75 6 52 20 -5 3 -10 17 -10 31 0 13 -4 24 -10 24
-5 0 -10 -5 -10 -12 0 -9 -3 -9 -11 -1 -8 8 -7 21 2 47 19 53 2 78 -48 69z
m27 -42 c0 -27 -17 -35 -23 -11 -5 19 0 30 15 30 4 0 8 -9 8 -19z m-2 -83 c18
-18 15 -28 -8 -28 -13 0 -20 7 -20 20 0 23 10 26 28 8z"/>
<path d="M2320 2030 c0 -5 7 -10 15 -10 12 0 15 -15 15 -75 0 -60 3 -75 15
-75 12 0 15 14 15 70 0 54 4 72 15 76 30 12 14 24 -30 24 -25 0 -45 -4 -45
-10z"/>
<path d="M2445 2018 c-28 -127 -31 -148 -14 -148 6 0 13 9 16 20 6 23 43 27
43 5 0 -8 7 -15 15 -15 19 0 19 5 -1 91 -13 56 -19 69 -35 69 -11 0 -21 -9
-24 -22z m35 -64 c0 -13 -4 -24 -10 -24 -5 0 -10 14 -10 31 0 17 4 28 10 24 6
-3 10 -17 10 -31z"/>
<path d="M2067 2023 c-4 -3 -7 -24 -7 -45 0 -27 -4 -38 -15 -38 -11 0 -15 11
-15 40 0 29 -4 40 -15 40 -12 0 -15 -17 -15 -95 0 -76 3 -95 14 -95 10 0 16
13 18 42 4 54 26 62 30 12 2 -21 9 -39 16 -42 9 -3 12 20 12 92 0 88 -5 108
-23 89z"/>
<path d="M1900 1990 c-6 -11 -10 -35 -8 -53 2 -27 8 -33 31 -35 21 -3 27 -9
27 -27 0 -31 -16 -40 -29 -18 -8 15 -12 16 -23 5 -18 -18 3 -48 33 -44 38 4
50 22 47 66 -3 36 -6 41 -30 44 -22 3 -28 9 -28 28 0 15 6 24 15 24 8 0 15 -4
15 -10 0 -5 7 -10 16 -10 10 0 14 7 12 23 -4 32 -62 37 -78 7z"/>
<path d="M1828 1993 l-28 -4 0 -103 0 -103 40 10 c23 6 40 17 40 25 0 10 -7
12 -25 8 -22 -6 -25 -3 -25 23 0 21 6 32 20 36 27 9 27 35 -1 28 -18 -5 -20
-2 -17 23 2 21 9 30 26 32 22 3 32 33 10 31 -7 -1 -25 -4 -40 -6z"/>
<path d="M1713 1960 c-22 -9 -23 -15 -23 -111 0 -76 3 -100 13 -97 6 3 14 24
17 49 l5 44 13 -37 c16 -46 49 -55 36 -10 -9 31 -8 56 1 94 16 63 -8 89 -62
68z m35 -61 c-5 -35 -28 -36 -28 -1 0 16 3 32 7 36 11 11 25 -10 21 -35z"/>
<path d="M1623 1924 l-33 -14 0 -106 c0 -80 3 -105 13 -102 6 3 13 25 15 51 2
34 8 50 23 57 10 6 19 17 19 26 0 12 -4 12 -20 4 -18 -10 -20 -8 -20 20 0 23
6 33 25 42 14 6 25 17 25 25 0 16 -6 15 -47 -3z"/>
</g>
</svg>
